ISO-10303-21;
HEADER;
FILE_DESCRIPTION(('FreeCAD Model'),'2;1');
FILE_NAME('Open CASCADE Shape Model','2026-07-06T17:03:20',(''),(''),
  'Open CASCADE STEP processor 7.8','FreeCAD','Unknown');
FILE_SCHEMA(('AUTOMOTIVE_DESIGN { 1 0 10303 214 1 1 1 1 }'));
ENDSEC;
DATA;
#1 = APPLICATION_PROTOCOL_DEFINITION('international standard',
  'automotive_design',2000,#2);
#2 = APPLICATION_CONTEXT(
  'core data for automotive mechanical design processes');
#3 = SHAPE_DEFINITION_REPRESENTATION(#4,#10);
#4 = PRODUCT_DEFINITION_SHAPE('','',#5);
#5 = PRODUCT_DEFINITION('design','',#6,#9);
#6 = PRODUCT_DEFINITION_FORMATION('','',#7);
#7 = PRODUCT('Body','Body','',(#8));
#8 = PRODUCT_CONTEXT('',#2,'mechanical');
#9 = PRODUCT_DEFINITION_CONTEXT('part definition',#2,'design');
#10 = ADVANCED_BREP_SHAPE_REPRESENTATION('',(#11,#15),#528);
#11 = AXIS2_PLACEMENT_3D('',#12,#13,#14);
#12 = CARTESIAN_POINT('',(0.,0.,0.));
#13 = DIRECTION('',(0.,0.,1.));
#14 = DIRECTION('',(1.,0.,-0.));
#15 = MANIFOLD_SOLID_BREP('',#16);
#16 = CLOSED_SHELL('',(#17,#57,#176,#200,#224,#329,#346,#363,#380,#397,
    #414,#431,#448,#465,#482,#499,#516));
#17 = ADVANCED_FACE('',(#18),#52,.F.);
#18 = FACE_BOUND('',#19,.F.);
#19 = EDGE_LOOP('',(#20,#30,#38,#46));
#20 = ORIENTED_EDGE('',*,*,#21,.F.);
#21 = EDGE_CURVE('',#22,#24,#26,.T.);
#22 = VERTEX_POINT('',#23);
#23 = CARTESIAN_POINT('',(-9.,97.5,18.5));
#24 = VERTEX_POINT('',#25);
#25 = CARTESIAN_POINT('',(-9.,97.5,19.5));
#26 = LINE('',#27,#28);
#27 = CARTESIAN_POINT('',(-9.,97.5,18.5));
#28 = VECTOR('',#29,1.);
#29 = DIRECTION('',(0.,0.,1.));
#30 = ORIENTED_EDGE('',*,*,#31,.T.);
#31 = EDGE_CURVE('',#22,#32,#34,.T.);
#32 = VERTEX_POINT('',#33);
#33 = CARTESIAN_POINT('',(9.,97.5,18.5));
#34 = LINE('',#35,#36);
#35 = CARTESIAN_POINT('',(-9.,97.5,18.5));
#36 = VECTOR('',#37,1.);
#37 = DIRECTION('',(1.,0.,0.));
#38 = ORIENTED_EDGE('',*,*,#39,.T.);
#39 = EDGE_CURVE('',#32,#40,#42,.T.);
#40 = VERTEX_POINT('',#41);
#41 = CARTESIAN_POINT('',(9.,97.5,19.5));
#42 = LINE('',#43,#44);
#43 = CARTESIAN_POINT('',(9.,97.5,18.5));
#44 = VECTOR('',#45,1.);
#45 = DIRECTION('',(0.,0.,1.));
#46 = ORIENTED_EDGE('',*,*,#47,.F.);
#47 = EDGE_CURVE('',#24,#40,#48,.T.);
#48 = LINE('',#49,#50);
#49 = CARTESIAN_POINT('',(-9.,97.5,19.5));
#50 = VECTOR('',#51,1.);
#51 = DIRECTION('',(1.,0.,0.));
#52 = PLANE('',#53);
#53 = AXIS2_PLACEMENT_3D('',#54,#55,#56);
#54 = CARTESIAN_POINT('',(-9.,97.5,18.5));
#55 = DIRECTION('',(0.,-1.,0.));
#56 = DIRECTION('',(0.,0.,1.));
#57 = ADVANCED_FACE('',(#58),#171,.F.);
#58 = FACE_BOUND('',#59,.F.);
#59 = EDGE_LOOP('',(#60,#61,#69,#77,#85,#93,#101,#109,#117,#125,#133,
    #141,#149,#157,#165));
#60 = ORIENTED_EDGE('',*,*,#21,.T.);
#61 = ORIENTED_EDGE('',*,*,#62,.T.);
#62 = EDGE_CURVE('',#24,#63,#65,.T.);
#63 = VERTEX_POINT('',#64);
#64 = CARTESIAN_POINT('',(-9.,90.5,26.5));
#65 = LINE('',#66,#67);
#66 = CARTESIAN_POINT('',(-9.,74.437906724511,42.562093275489));
#67 = VECTOR('',#68,1.);
#68 = DIRECTION('',(0.,-0.707106781187,0.707106781187));
#69 = ORIENTED_EDGE('',*,*,#70,.T.);
#70 = EDGE_CURVE('',#63,#71,#73,.T.);
#71 = VERTEX_POINT('',#72);
#72 = CARTESIAN_POINT('',(-9.,-98.49999999995,26.5));
#73 = LINE('',#74,#75);
#74 = CARTESIAN_POINT('',(-9.,97.5,26.5));
#75 = VECTOR('',#76,1.);
#76 = DIRECTION('',(0.,-1.,0.));
#77 = ORIENTED_EDGE('',*,*,#78,.T.);
#78 = EDGE_CURVE('',#71,#79,#81,.T.);
#79 = VERTEX_POINT('',#80);
#80 = CARTESIAN_POINT('',(-9.,-105.4999999999,19.5));
#81 = LINE('',#82,#83);
#82 = CARTESIAN_POINT('',(-9.,-84.4471258134,40.552874186546));
#83 = VECTOR('',#84,1.);
#84 = DIRECTION('',(0.,-0.707106781187,-0.707106781187));
#85 = ORIENTED_EDGE('',*,*,#86,.T.);
#86 = EDGE_CURVE('',#79,#87,#89,.T.);
#87 = VERTEX_POINT('',#88);
#88 = CARTESIAN_POINT('',(-9.,-105.4999999999,-19.49999999995));
#89 = LINE('',#90,#91);
#90 = CARTESIAN_POINT('',(-9.,-105.4999999999,26.5));
#91 = VECTOR('',#92,1.);
#92 = DIRECTION('',(0.,0.,-1.));
#93 = ORIENTED_EDGE('',*,*,#94,.T.);
#94 = EDGE_CURVE('',#87,#95,#97,.T.);
#95 = VERTEX_POINT('',#96);
#96 = CARTESIAN_POINT('',(-9.,-98.49999999995,-26.49999999995));
#97 = LINE('',#98,#99);
#98 = CARTESIAN_POINT('',(-9.,-84.06209327544,-40.93790672446));
#99 = VECTOR('',#100,1.);
#100 = DIRECTION('',(0.,0.707106781187,-0.707106781187));
#101 = ORIENTED_EDGE('',*,*,#102,.T.);
#102 = EDGE_CURVE('',#95,#103,#105,.T.);
#103 = VERTEX_POINT('',#104);
#104 = CARTESIAN_POINT('',(-9.,89.500000000049,-26.49999999995));
#105 = LINE('',#106,#107);
#106 = CARTESIAN_POINT('',(-9.,-105.4999999999,-26.49999999995));
#107 = VECTOR('',#108,1.);
#108 = DIRECTION('',(0.,1.,0.));
#109 = ORIENTED_EDGE('',*,*,#110,.T.);
#110 = EDGE_CURVE('',#103,#111,#113,.T.);
#111 = VERTEX_POINT('',#112);
#112 = CARTESIAN_POINT('',(-9.,89.500000000049,-36.49999999995));
#113 = LINE('',#114,#115);
#114 = CARTESIAN_POINT('',(-9.,89.500000000049,-26.49999999995));
#115 = VECTOR('',#116,1.);
#116 = DIRECTION('',(0.,0.,-1.));
#117 = ORIENTED_EDGE('',*,*,#118,.T.);
#118 = EDGE_CURVE('',#111,#119,#121,.T.);
#119 = VERTEX_POINT('',#120);
#120 = CARTESIAN_POINT('',(-9.,90.5,-36.49999999995));
#121 = LINE('',#122,#123);
#122 = CARTESIAN_POINT('',(-9.,89.500000000049,-36.49999999995));
#123 = VECTOR('',#124,1.);
#124 = DIRECTION('',(0.,1.,0.));
#125 = ORIENTED_EDGE('',*,*,#126,.T.);
#126 = EDGE_CURVE('',#119,#127,#129,.T.);
#127 = VERTEX_POINT('',#128);
#128 = CARTESIAN_POINT('',(-9.,97.5,-29.49999999995));
#129 = LINE('',#130,#131);
#130 = CARTESIAN_POINT('',(-9.,76.552874186546,-50.4471258134));
#131 = VECTOR('',#132,1.);
#132 = DIRECTION('',(0.,0.707106781187,0.707106781187));
#133 = ORIENTED_EDGE('',*,*,#134,.T.);
#134 = EDGE_CURVE('',#127,#135,#137,.T.);
#135 = VERTEX_POINT('',#136);
#136 = CARTESIAN_POINT('',(-9.,97.5,-25.5));
#137 = LINE('',#138,#139);
#138 = CARTESIAN_POINT('',(-9.,97.5,-36.49999999995));
#139 = VECTOR('',#140,1.);
#140 = DIRECTION('',(0.,0.,1.));
#141 = ORIENTED_EDGE('',*,*,#142,.T.);
#142 = EDGE_CURVE('',#135,#143,#145,.T.);
#143 = VERTEX_POINT('',#144);
#144 = CARTESIAN_POINT('',(-9.,90.5,-18.5));
#145 = LINE('',#146,#147);
#146 = CARTESIAN_POINT('',(-9.,63.187906724511,8.812093275489));
#147 = VECTOR('',#148,1.);
#148 = DIRECTION('',(0.,-0.707106781187,0.707106781187));
#149 = ORIENTED_EDGE('',*,*,#150,.T.);
#150 = EDGE_CURVE('',#143,#151,#153,.T.);
#151 = VERTEX_POINT('',#152);
#152 = CARTESIAN_POINT('',(-9.,-97.5,-18.5));
#153 = LINE('',#154,#155);
#154 = CARTESIAN_POINT('',(-9.,97.5,-18.5));
#155 = VECTOR('',#156,1.);
#156 = DIRECTION('',(0.,-1.,0.));
#157 = ORIENTED_EDGE('',*,*,#158,.T.);
#158 = EDGE_CURVE('',#151,#159,#161,.T.);
#159 = VERTEX_POINT('',#160);
#160 = CARTESIAN_POINT('',(-9.,-97.5,18.5));
#161 = LINE('',#162,#163);
#162 = CARTESIAN_POINT('',(-9.,-97.5,-18.5));
#163 = VECTOR('',#164,1.);
#164 = DIRECTION('',(0.,0.,1.));
#165 = ORIENTED_EDGE('',*,*,#166,.T.);
#166 = EDGE_CURVE('',#159,#22,#167,.T.);
#167 = LINE('',#168,#169);
#168 = CARTESIAN_POINT('',(-9.,-97.5,18.5));
#169 = VECTOR('',#170,1.);
#170 = DIRECTION('',(0.,1.,0.));
#171 = PLANE('',#172);
#172 = AXIS2_PLACEMENT_3D('',#173,#174,#175);
#173 = CARTESIAN_POINT('',(-9.,-8.018438177861,-0.770065075907));
#174 = DIRECTION('',(1.,0.,0.));
#175 = DIRECTION('',(0.,0.,1.));
#176 = ADVANCED_FACE('',(#177),#195,.T.);
#177 = FACE_BOUND('',#178,.F.);
#178 = EDGE_LOOP('',(#179,#180,#181,#189));
#179 = ORIENTED_EDGE('',*,*,#62,.F.);
#180 = ORIENTED_EDGE('',*,*,#47,.T.);
#181 = ORIENTED_EDGE('',*,*,#182,.T.);
#182 = EDGE_CURVE('',#40,#183,#185,.T.);
#183 = VERTEX_POINT('',#184);
#184 = CARTESIAN_POINT('',(9.,90.5,26.5));
#185 = LINE('',#186,#187);
#186 = CARTESIAN_POINT('',(9.,74.437906724511,42.562093275489));
#187 = VECTOR('',#188,1.);
#188 = DIRECTION('',(0.,-0.707106781187,0.707106781187));
#189 = ORIENTED_EDGE('',*,*,#190,.F.);
#190 = EDGE_CURVE('',#63,#183,#191,.T.);
#191 = LINE('',#192,#193);
#192 = CARTESIAN_POINT('',(-9.,90.5,26.5));
#193 = VECTOR('',#194,1.);
#194 = DIRECTION('',(1.,0.,0.));
#195 = PLANE('',#196);
#196 = AXIS2_PLACEMENT_3D('',#197,#198,#199);
#197 = CARTESIAN_POINT('',(-9.,94.,23.));
#198 = DIRECTION('',(0.,0.707106781187,0.707106781187));
#199 = DIRECTION('',(-1.,-0.,-0.));
#200 = ADVANCED_FACE('',(#201),#219,.F.);
#201 = FACE_BOUND('',#202,.F.);
#202 = EDGE_LOOP('',(#203,#211,#217,#218));
#203 = ORIENTED_EDGE('',*,*,#204,.T.);
#204 = EDGE_CURVE('',#159,#205,#207,.T.);
#205 = VERTEX_POINT('',#206);
#206 = CARTESIAN_POINT('',(9.,-97.5,18.5));
#207 = LINE('',#208,#209);
#208 = CARTESIAN_POINT('',(-9.,-97.5,18.5));
#209 = VECTOR('',#210,1.);
#210 = DIRECTION('',(1.,0.,0.));
#211 = ORIENTED_EDGE('',*,*,#212,.T.);
#212 = EDGE_CURVE('',#205,#32,#213,.T.);
#213 = LINE('',#214,#215);
#214 = CARTESIAN_POINT('',(9.,-97.5,18.5));
#215 = VECTOR('',#216,1.);
#216 = DIRECTION('',(0.,1.,0.));
#217 = ORIENTED_EDGE('',*,*,#31,.F.);
#218 = ORIENTED_EDGE('',*,*,#166,.F.);
#219 = PLANE('',#220);
#220 = AXIS2_PLACEMENT_3D('',#221,#222,#223);
#221 = CARTESIAN_POINT('',(-9.,-97.5,18.5));
#222 = DIRECTION('',(0.,0.,1.));
#223 = DIRECTION('',(0.,1.,0.));
#224 = ADVANCED_FACE('',(#225),#324,.T.);
#225 = FACE_BOUND('',#226,.T.);
#226 = EDGE_LOOP('',(#227,#228,#229,#237,#245,#253,#261,#269,#277,#285,
    #293,#301,#309,#317,#323));
#227 = ORIENTED_EDGE('',*,*,#39,.T.);
#228 = ORIENTED_EDGE('',*,*,#182,.T.);
#229 = ORIENTED_EDGE('',*,*,#230,.T.);
#230 = EDGE_CURVE('',#183,#231,#233,.T.);
#231 = VERTEX_POINT('',#232);
#232 = CARTESIAN_POINT('',(9.,-98.49999999995,26.5));
#233 = LINE('',#234,#235);
#234 = CARTESIAN_POINT('',(9.,97.5,26.5));
#235 = VECTOR('',#236,1.);
#236 = DIRECTION('',(0.,-1.,0.));
#237 = ORIENTED_EDGE('',*,*,#238,.T.);
#238 = EDGE_CURVE('',#231,#239,#241,.T.);
#239 = VERTEX_POINT('',#240);
#240 = CARTESIAN_POINT('',(9.,-105.4999999999,19.5));
#241 = LINE('',#242,#243);
#242 = CARTESIAN_POINT('',(9.,-84.4471258134,40.552874186546));
#243 = VECTOR('',#244,1.);
#244 = DIRECTION('',(0.,-0.707106781187,-0.707106781187));
#245 = ORIENTED_EDGE('',*,*,#246,.T.);
#246 = EDGE_CURVE('',#239,#247,#249,.T.);
#247 = VERTEX_POINT('',#248);
#248 = CARTESIAN_POINT('',(9.,-105.4999999999,-19.49999999995));
#249 = LINE('',#250,#251);
#250 = CARTESIAN_POINT('',(9.,-105.4999999999,26.5));
#251 = VECTOR('',#252,1.);
#252 = DIRECTION('',(0.,0.,-1.));
#253 = ORIENTED_EDGE('',*,*,#254,.T.);
#254 = EDGE_CURVE('',#247,#255,#257,.T.);
#255 = VERTEX_POINT('',#256);
#256 = CARTESIAN_POINT('',(9.,-98.49999999995,-26.49999999995));
#257 = LINE('',#258,#259);
#258 = CARTESIAN_POINT('',(9.,-84.06209327544,-40.93790672446));
#259 = VECTOR('',#260,1.);
#260 = DIRECTION('',(0.,0.707106781187,-0.707106781187));
#261 = ORIENTED_EDGE('',*,*,#262,.T.);
#262 = EDGE_CURVE('',#255,#263,#265,.T.);
#263 = VERTEX_POINT('',#264);
#264 = CARTESIAN_POINT('',(9.,89.500000000049,-26.49999999995));
#265 = LINE('',#266,#267);
#266 = CARTESIAN_POINT('',(9.,-105.4999999999,-26.49999999995));
#267 = VECTOR('',#268,1.);
#268 = DIRECTION('',(0.,1.,0.));
#269 = ORIENTED_EDGE('',*,*,#270,.T.);
#270 = EDGE_CURVE('',#263,#271,#273,.T.);
#271 = VERTEX_POINT('',#272);
#272 = CARTESIAN_POINT('',(9.,89.500000000049,-36.49999999995));
#273 = LINE('',#274,#275);
#274 = CARTESIAN_POINT('',(9.,89.500000000049,-26.49999999995));
#275 = VECTOR('',#276,1.);
#276 = DIRECTION('',(0.,0.,-1.));
#277 = ORIENTED_EDGE('',*,*,#278,.T.);
#278 = EDGE_CURVE('',#271,#279,#281,.T.);
#279 = VERTEX_POINT('',#280);
#280 = CARTESIAN_POINT('',(9.,90.5,-36.49999999995));
#281 = LINE('',#282,#283);
#282 = CARTESIAN_POINT('',(9.,89.500000000049,-36.49999999995));
#283 = VECTOR('',#284,1.);
#284 = DIRECTION('',(0.,1.,0.));
#285 = ORIENTED_EDGE('',*,*,#286,.T.);
#286 = EDGE_CURVE('',#279,#287,#289,.T.);
#287 = VERTEX_POINT('',#288);
#288 = CARTESIAN_POINT('',(9.,97.5,-29.49999999995));
#289 = LINE('',#290,#291);
#290 = CARTESIAN_POINT('',(9.,76.552874186546,-50.4471258134));
#291 = VECTOR('',#292,1.);
#292 = DIRECTION('',(0.,0.707106781187,0.707106781187));
#293 = ORIENTED_EDGE('',*,*,#294,.T.);
#294 = EDGE_CURVE('',#287,#295,#297,.T.);
#295 = VERTEX_POINT('',#296);
#296 = CARTESIAN_POINT('',(9.,97.5,-25.5));
#297 = LINE('',#298,#299);
#298 = CARTESIAN_POINT('',(9.,97.5,-36.49999999995));
#299 = VECTOR('',#300,1.);
#300 = DIRECTION('',(0.,0.,1.));
#301 = ORIENTED_EDGE('',*,*,#302,.T.);
#302 = EDGE_CURVE('',#295,#303,#305,.T.);
#303 = VERTEX_POINT('',#304);
#304 = CARTESIAN_POINT('',(9.,90.5,-18.5));
#305 = LINE('',#306,#307);
#306 = CARTESIAN_POINT('',(9.,63.187906724511,8.812093275489));
#307 = VECTOR('',#308,1.);
#308 = DIRECTION('',(0.,-0.707106781187,0.707106781187));
#309 = ORIENTED_EDGE('',*,*,#310,.T.);
#310 = EDGE_CURVE('',#303,#311,#313,.T.);
#311 = VERTEX_POINT('',#312);
#312 = CARTESIAN_POINT('',(9.,-97.5,-18.5));
#313 = LINE('',#314,#315);
#314 = CARTESIAN_POINT('',(9.,97.5,-18.5));
#315 = VECTOR('',#316,1.);
#316 = DIRECTION('',(0.,-1.,0.));
#317 = ORIENTED_EDGE('',*,*,#318,.T.);
#318 = EDGE_CURVE('',#311,#205,#319,.T.);
#319 = LINE('',#320,#321);
#320 = CARTESIAN_POINT('',(9.,-97.5,-18.5));
#321 = VECTOR('',#322,1.);
#322 = DIRECTION('',(0.,0.,1.));
#323 = ORIENTED_EDGE('',*,*,#212,.T.);
#324 = PLANE('',#325);
#325 = AXIS2_PLACEMENT_3D('',#326,#327,#328);
#326 = CARTESIAN_POINT('',(9.,-8.018438177861,-0.770065075907));
#327 = DIRECTION('',(1.,0.,0.));
#328 = DIRECTION('',(0.,0.,1.));
#329 = ADVANCED_FACE('',(#330),#341,.F.);
#330 = FACE_BOUND('',#331,.F.);
#331 = EDGE_LOOP('',(#332,#333,#334,#335));
#332 = ORIENTED_EDGE('',*,*,#70,.F.);
#333 = ORIENTED_EDGE('',*,*,#190,.T.);
#334 = ORIENTED_EDGE('',*,*,#230,.T.);
#335 = ORIENTED_EDGE('',*,*,#336,.F.);
#336 = EDGE_CURVE('',#71,#231,#337,.T.);
#337 = LINE('',#338,#339);
#338 = CARTESIAN_POINT('',(-9.,-98.49999999995,26.5));
#339 = VECTOR('',#340,1.);
#340 = DIRECTION('',(1.,0.,0.));
#341 = PLANE('',#342);
#342 = AXIS2_PLACEMENT_3D('',#343,#344,#345);
#343 = CARTESIAN_POINT('',(-9.,97.5,26.5));
#344 = DIRECTION('',(0.,0.,-1.));
#345 = DIRECTION('',(0.,-1.,0.));
#346 = ADVANCED_FACE('',(#347),#358,.F.);
#347 = FACE_BOUND('',#348,.F.);
#348 = EDGE_LOOP('',(#349,#355,#356,#357));
#349 = ORIENTED_EDGE('',*,*,#350,.T.);
#350 = EDGE_CURVE('',#151,#311,#351,.T.);
#351 = LINE('',#352,#353);
#352 = CARTESIAN_POINT('',(-9.,-97.5,-18.5));
#353 = VECTOR('',#354,1.);
#354 = DIRECTION('',(1.,0.,0.));
#355 = ORIENTED_EDGE('',*,*,#318,.T.);
#356 = ORIENTED_EDGE('',*,*,#204,.F.);
#357 = ORIENTED_EDGE('',*,*,#158,.F.);
#358 = PLANE('',#359);
#359 = AXIS2_PLACEMENT_3D('',#360,#361,#362);
#360 = CARTESIAN_POINT('',(-9.,-97.5,-18.5));
#361 = DIRECTION('',(0.,-1.,0.));
#362 = DIRECTION('',(0.,0.,1.));
#363 = ADVANCED_FACE('',(#364),#375,.T.);
#364 = FACE_BOUND('',#365,.F.);
#365 = EDGE_LOOP('',(#366,#367,#368,#369));
#366 = ORIENTED_EDGE('',*,*,#78,.F.);
#367 = ORIENTED_EDGE('',*,*,#336,.T.);
#368 = ORIENTED_EDGE('',*,*,#238,.T.);
#369 = ORIENTED_EDGE('',*,*,#370,.F.);
#370 = EDGE_CURVE('',#79,#239,#371,.T.);
#371 = LINE('',#372,#373);
#372 = CARTESIAN_POINT('',(-9.,-105.4999999999,19.5));
#373 = VECTOR('',#374,1.);
#374 = DIRECTION('',(1.,0.,0.));
#375 = PLANE('',#376);
#376 = AXIS2_PLACEMENT_3D('',#377,#378,#379);
#377 = CARTESIAN_POINT('',(-9.,-101.9999999999,23.));
#378 = DIRECTION('',(0.,-0.707106781187,0.707106781187));
#379 = DIRECTION('',(-1.,-0.,-0.));
#380 = ADVANCED_FACE('',(#381),#392,.F.);
#381 = FACE_BOUND('',#382,.F.);
#382 = EDGE_LOOP('',(#383,#384,#390,#391));
#383 = ORIENTED_EDGE('',*,*,#150,.F.);
#384 = ORIENTED_EDGE('',*,*,#385,.T.);
#385 = EDGE_CURVE('',#143,#303,#386,.T.);
#386 = LINE('',#387,#388);
#387 = CARTESIAN_POINT('',(-9.,90.5,-18.5));
#388 = VECTOR('',#389,1.);
#389 = DIRECTION('',(1.,0.,0.));
#390 = ORIENTED_EDGE('',*,*,#310,.T.);
#391 = ORIENTED_EDGE('',*,*,#350,.F.);
#392 = PLANE('',#393);
#393 = AXIS2_PLACEMENT_3D('',#394,#395,#396);
#394 = CARTESIAN_POINT('',(-9.,97.5,-18.5));
#395 = DIRECTION('',(0.,0.,-1.));
#396 = DIRECTION('',(0.,-1.,0.));
#397 = ADVANCED_FACE('',(#398),#409,.F.);
#398 = FACE_BOUND('',#399,.F.);
#399 = EDGE_LOOP('',(#400,#401,#402,#403));
#400 = ORIENTED_EDGE('',*,*,#86,.F.);
#401 = ORIENTED_EDGE('',*,*,#370,.T.);
#402 = ORIENTED_EDGE('',*,*,#246,.T.);
#403 = ORIENTED_EDGE('',*,*,#404,.F.);
#404 = EDGE_CURVE('',#87,#247,#405,.T.);
#405 = LINE('',#406,#407);
#406 = CARTESIAN_POINT('',(-9.,-105.4999999999,-19.49999999995));
#407 = VECTOR('',#408,1.);
#408 = DIRECTION('',(1.,0.,0.));
#409 = PLANE('',#410);
#410 = AXIS2_PLACEMENT_3D('',#411,#412,#413);
#411 = CARTESIAN_POINT('',(-9.,-105.4999999999,26.5));
#412 = DIRECTION('',(0.,1.,0.));
#413 = DIRECTION('',(0.,0.,-1.));
#414 = ADVANCED_FACE('',(#415),#426,.T.);
#415 = FACE_BOUND('',#416,.F.);
#416 = EDGE_LOOP('',(#417,#418,#424,#425));
#417 = ORIENTED_EDGE('',*,*,#142,.F.);
#418 = ORIENTED_EDGE('',*,*,#419,.T.);
#419 = EDGE_CURVE('',#135,#295,#420,.T.);
#420 = LINE('',#421,#422);
#421 = CARTESIAN_POINT('',(-9.,97.5,-25.5));
#422 = VECTOR('',#423,1.);
#423 = DIRECTION('',(1.,0.,0.));
#424 = ORIENTED_EDGE('',*,*,#302,.T.);
#425 = ORIENTED_EDGE('',*,*,#385,.F.);
#426 = PLANE('',#427);
#427 = AXIS2_PLACEMENT_3D('',#428,#429,#430);
#428 = CARTESIAN_POINT('',(-9.,94.,-22.));
#429 = DIRECTION('',(0.,0.707106781187,0.707106781187));
#430 = DIRECTION('',(-1.,-0.,-0.));
#431 = ADVANCED_FACE('',(#432),#443,.T.);
#432 = FACE_BOUND('',#433,.F.);
#433 = EDGE_LOOP('',(#434,#435,#436,#437));
#434 = ORIENTED_EDGE('',*,*,#94,.F.);
#435 = ORIENTED_EDGE('',*,*,#404,.T.);
#436 = ORIENTED_EDGE('',*,*,#254,.T.);
#437 = ORIENTED_EDGE('',*,*,#438,.F.);
#438 = EDGE_CURVE('',#95,#255,#439,.T.);
#439 = LINE('',#440,#441);
#440 = CARTESIAN_POINT('',(-9.,-98.49999999995,-26.49999999995));
#441 = VECTOR('',#442,1.);
#442 = DIRECTION('',(1.,0.,0.));
#443 = PLANE('',#444);
#444 = AXIS2_PLACEMENT_3D('',#445,#446,#447);
#445 = CARTESIAN_POINT('',(-9.,-101.9999999999,-22.99999999995));
#446 = DIRECTION('',(0.,-0.707106781187,-0.707106781187));
#447 = DIRECTION('',(-1.,-0.,-0.));
#448 = ADVANCED_FACE('',(#449),#460,.F.);
#449 = FACE_BOUND('',#450,.F.);
#450 = EDGE_LOOP('',(#451,#452,#458,#459));
#451 = ORIENTED_EDGE('',*,*,#134,.F.);
#452 = ORIENTED_EDGE('',*,*,#453,.T.);
#453 = EDGE_CURVE('',#127,#287,#454,.T.);
#454 = LINE('',#455,#456);
#455 = CARTESIAN_POINT('',(-9.,97.5,-29.49999999995));
#456 = VECTOR('',#457,1.);
#457 = DIRECTION('',(1.,0.,0.));
#458 = ORIENTED_EDGE('',*,*,#294,.T.);
#459 = ORIENTED_EDGE('',*,*,#419,.F.);
#460 = PLANE('',#461);
#461 = AXIS2_PLACEMENT_3D('',#462,#463,#464);
#462 = CARTESIAN_POINT('',(-9.,97.5,-36.49999999995));
#463 = DIRECTION('',(0.,-1.,0.));
#464 = DIRECTION('',(0.,0.,1.));
#465 = ADVANCED_FACE('',(#466),#477,.F.);
#466 = FACE_BOUND('',#467,.F.);
#467 = EDGE_LOOP('',(#468,#469,#470,#471));
#468 = ORIENTED_EDGE('',*,*,#102,.F.);
#469 = ORIENTED_EDGE('',*,*,#438,.T.);
#470 = ORIENTED_EDGE('',*,*,#262,.T.);
#471 = ORIENTED_EDGE('',*,*,#472,.F.);
#472 = EDGE_CURVE('',#103,#263,#473,.T.);
#473 = LINE('',#474,#475);
#474 = CARTESIAN_POINT('',(-9.,89.500000000049,-26.49999999995));
#475 = VECTOR('',#476,1.);
#476 = DIRECTION('',(1.,0.,0.));
#477 = PLANE('',#478);
#478 = AXIS2_PLACEMENT_3D('',#479,#480,#481);
#479 = CARTESIAN_POINT('',(-9.,-105.4999999999,-26.49999999995));
#480 = DIRECTION('',(0.,0.,1.));
#481 = DIRECTION('',(0.,1.,0.));
#482 = ADVANCED_FACE('',(#483),#494,.T.);
#483 = FACE_BOUND('',#484,.F.);
#484 = EDGE_LOOP('',(#485,#486,#492,#493));
#485 = ORIENTED_EDGE('',*,*,#126,.F.);
#486 = ORIENTED_EDGE('',*,*,#487,.T.);
#487 = EDGE_CURVE('',#119,#279,#488,.T.);
#488 = LINE('',#489,#490);
#489 = CARTESIAN_POINT('',(-9.,90.5,-36.49999999995));
#490 = VECTOR('',#491,1.);
#491 = DIRECTION('',(1.,0.,0.));
#492 = ORIENTED_EDGE('',*,*,#286,.T.);
#493 = ORIENTED_EDGE('',*,*,#453,.F.);
#494 = PLANE('',#495);
#495 = AXIS2_PLACEMENT_3D('',#496,#497,#498);
#496 = CARTESIAN_POINT('',(-9.,94.,-32.99999999995));
#497 = DIRECTION('',(0.,0.707106781187,-0.707106781187));
#498 = DIRECTION('',(-1.,-0.,-0.));
#499 = ADVANCED_FACE('',(#500),#511,.F.);
#500 = FACE_BOUND('',#501,.F.);
#501 = EDGE_LOOP('',(#502,#503,#504,#510));
#502 = ORIENTED_EDGE('',*,*,#472,.T.);
#503 = ORIENTED_EDGE('',*,*,#270,.T.);
#504 = ORIENTED_EDGE('',*,*,#505,.F.);
#505 = EDGE_CURVE('',#111,#271,#506,.T.);
#506 = LINE('',#507,#508);
#507 = CARTESIAN_POINT('',(-9.,89.500000000049,-36.49999999995));
#508 = VECTOR('',#509,1.);
#509 = DIRECTION('',(1.,0.,0.));
#510 = ORIENTED_EDGE('',*,*,#110,.F.);
#511 = PLANE('',#512);
#512 = AXIS2_PLACEMENT_3D('',#513,#514,#515);
#513 = CARTESIAN_POINT('',(-9.,89.500000000049,-26.49999999995));
#514 = DIRECTION('',(0.,1.,0.));
#515 = DIRECTION('',(0.,0.,-1.));
#516 = ADVANCED_FACE('',(#517),#523,.F.);
#517 = FACE_BOUND('',#518,.F.);
#518 = EDGE_LOOP('',(#519,#520,#521,#522));
#519 = ORIENTED_EDGE('',*,*,#118,.F.);
#520 = ORIENTED_EDGE('',*,*,#505,.T.);
#521 = ORIENTED_EDGE('',*,*,#278,.T.);
#522 = ORIENTED_EDGE('',*,*,#487,.F.);
#523 = PLANE('',#524);
#524 = AXIS2_PLACEMENT_3D('',#525,#526,#527);
#525 = CARTESIAN_POINT('',(-9.,89.500000000049,-36.49999999995));
#526 = DIRECTION('',(0.,0.,1.));
#527 = DIRECTION('',(0.,1.,0.));
#528 = ( GEOMETRIC_REPRESENTATION_CONTEXT(3) 
GLOBAL_UNCERTAINTY_ASSIGNED_CONTEXT((#532)) GLOBAL_UNIT_ASSIGNED_CONTEXT
((#529,#530,#531)) REPRESENTATION_CONTEXT('Context #1',
  '3D Context with UNIT and UNCERTAINTY') );
#529 = ( LENGTH_UNIT() NAMED_UNIT(*) SI_UNIT(.MILLI.,.METRE.) );
#530 = ( NAMED_UNIT(*) PLANE_ANGLE_UNIT() SI_UNIT($,.RADIAN.) );
#531 = ( NAMED_UNIT(*) SI_UNIT($,.STERADIAN.) SOLID_ANGLE_UNIT() );
#532 = UNCERTAINTY_MEASURE_WITH_UNIT(LENGTH_MEASURE(1.E-07),#529,
  'distance_accuracy_value','confusion accuracy');
#533 = PRODUCT_RELATED_PRODUCT_CATEGORY('part',$,(#7));
#534 = MECHANICAL_DESIGN_GEOMETRIC_PRESENTATION_REPRESENTATION('',(#535)
  ,#528);
#535 = STYLED_ITEM('color',(#536),#15);
#536 = PRESENTATION_STYLE_ASSIGNMENT((#537,#543));
#537 = SURFACE_STYLE_USAGE(.BOTH.,#538);
#538 = SURFACE_SIDE_STYLE('',(#539));
#539 = SURFACE_STYLE_FILL_AREA(#540);
#540 = FILL_AREA_STYLE('',(#541));
#541 = FILL_AREA_STYLE_COLOUR('',#542);
#542 = COLOUR_RGB('',0.447058818107,0.474509808674,0.501960817233);
#543 = CURVE_STYLE('',#544,POSITIVE_LENGTH_MEASURE(0.1),#545);
#544 = DRAUGHTING_PRE_DEFINED_CURVE_FONT('continuous');
#545 = COLOUR_RGB('',9.803921802644E-02,9.803921802644E-02,
  9.803921802644E-02);
ENDSEC;
END-ISO-10303-21;
